<svg version="1.1" xmlns="http://www.w3.org/2000/svg" xmlns:xlink="http://www.w3.org/1999/xlink" width="120" height="72.63144" viewBox="0,0,120,72.63144"><defs><linearGradient x1="301.0481" y1="176.9307" x2="181.0481" y2="176.9307" gradientUnits="userSpaceOnUse" id="color-1"><stop offset="0" stop-color="#fbb040"/><stop offset="1" stop-color="#f15a29"/></linearGradient><linearGradient x1="296.5452" y1="176.9297" x2="185.5521" y2="176.9297" gradientUnits="userSpaceOnUse" id="color-2"><stop offset="0" stop-color="#ed7340"/><stop offset="0.5181" stop-color="#f4aa46"/><stop offset="1" stop-color="#f29746"/></linearGradient></defs><g transform="translate(-181.048,-138.54503)"><g data-paper-data="{&quot;isPaintingLayer&quot;:true}" fill-rule="nonzero" stroke="none" stroke-width="1" stroke-linecap="butt" stroke-linejoin="miter" stroke-miterlimit="10" stroke-dasharray="" stroke-dashoffset="0" style="mix-blend-mode: normal"><path d="M207.194,150.787h67.711c14.416,0 26.143,11.728 26.143,26.144c0,14.416 -11.728,26.144 -26.143,26.144h-67.711c-14.416,0 -26.146,-11.729 -26.146,-26.144c0.001,-14.417 11.73,-26.144 26.146,-26.144z" data-paper-data="{&quot;index&quot;:null}" fill="url(#color-1)"/><path d="M185.552,176.929c0,-11.951 9.69,-21.64 21.642,-21.64h67.711c11.952,0 21.64,9.689 21.64,21.64v0c0,11.953 -9.688,21.641 -21.64,21.641h-67.711c-11.953,0 -21.642,-9.688 -21.642,-21.641z" data-paper-data="{&quot;index&quot;:null}" fill="url(#color-2)"/><text transform="translate(223.03529,194.9641) scale(1.29699,1.29699)" font-size="40" xml:space="preserve" fill="#000000" fill-rule="nonzero" stroke="none" stroke-width="1" stroke-linecap="butt" stroke-linejoin="miter" stroke-miterlimit="10" stroke-dasharray="" stroke-dashoffset="0" font-family="Sans Serif" font-weight="normal" text-anchor="start" style="mix-blend-mode: normal"><tspan x="0" dy="0">D</tspan></text></g></g></svg>